<mxfile host="app.diagrams.net" agent="Mozilla/5.0 (Windows NT 10.0; Win64; x64) AppleWebKit/537.36 (KHTML, like Gecko) Chrome/134.0.0.0 Safari/537.36 Edg/134.0.0.0" version="26.1.1">
  <diagram name="Страница — 1" id="63vRWQAEnhy3MmpLSvWO">
    <mxGraphModel dx="1489" dy="807" grid="1" gridSize="10" guides="1" tooltips="1" connect="1" arrows="1" fold="1" page="1" pageScale="1" pageWidth="827" pageHeight="1169" math="0" shadow="0">
      <root>
        <mxCell id="0" />
        <mxCell id="1" parent="0" />
        <mxCell id="O_73Io-oXdO_OndHT06N-1" value="Процесс создания проекта" style="swimlane;html=1;startSize=20;fontStyle=0;collapsible=0;horizontal=1;swimlaneLine=1;strokeWidth=2;swimlaneFillColor=#ffffff;whiteSpace=wrap;" vertex="1" parent="1">
          <mxGeometry x="30" y="130" width="960" height="200" as="geometry" />
        </mxCell>
        <mxCell id="O_73Io-oXdO_OndHT06N-2" value="Пользователь" style="swimlane;html=1;startSize=20;fontStyle=0;collapsible=0;horizontal=0;swimlaneLine=1;swimlaneFillColor=#ffffff;strokeWidth=2;whiteSpace=wrap;" vertex="1" parent="O_73Io-oXdO_OndHT06N-1">
          <mxGeometry y="20" width="960" height="140" as="geometry" />
        </mxCell>
        <mxCell id="O_73Io-oXdO_OndHT06N-3" value="" style="points=[[0.145,0.145,0],[0.5,0,0],[0.855,0.145,0],[1,0.5,0],[0.855,0.855,0],[0.5,1,0],[0.145,0.855,0],[0,0.5,0]];shape=mxgraph.bpmn.event;html=1;verticalLabelPosition=bottom;labelBackgroundColor=#ffffff;verticalAlign=top;align=center;perimeter=ellipsePerimeter;outlineConnect=0;aspect=fixed;outline=standard;symbol=general;" vertex="1" parent="O_73Io-oXdO_OndHT06N-2">
          <mxGeometry x="50" y="55" width="30" height="30" as="geometry" />
        </mxCell>
        <mxCell id="O_73Io-oXdO_OndHT06N-4" value="Создать проект" style="text;html=1;align=center;verticalAlign=middle;whiteSpace=wrap;rounded=0;" vertex="1" parent="O_73Io-oXdO_OndHT06N-2">
          <mxGeometry x="35" y="90" width="60" height="30" as="geometry" />
        </mxCell>
        <mxCell id="O_73Io-oXdO_OndHT06N-8" value="" style="edgeStyle=elbowEdgeStyle;fontSize=12;html=1;endArrow=blockThin;endFill=1;rounded=0;exitX=1;exitY=0.5;exitDx=0;exitDy=0;exitPerimeter=0;entryX=0;entryY=0.5;entryDx=0;entryDy=0;entryPerimeter=0;" edge="1" parent="O_73Io-oXdO_OndHT06N-2" source="O_73Io-oXdO_OndHT06N-3">
          <mxGeometry width="160" relative="1" as="geometry">
            <mxPoint x="330" y="150" as="sourcePoint" />
            <mxPoint x="120" y="70" as="targetPoint" />
          </mxGeometry>
        </mxCell>
        <mxCell id="O_73Io-oXdO_OndHT06N-37" value="Заполнить информацию о проекте" style="points=[[0.25,0,0],[0.5,0,0],[0.75,0,0],[1,0.25,0],[1,0.5,0],[1,0.75,0],[0.75,1,0],[0.5,1,0],[0.25,1,0],[0,0.75,0],[0,0.5,0],[0,0.25,0]];shape=mxgraph.bpmn.task2;whiteSpace=wrap;rectStyle=rounded;size=10;html=1;container=1;expand=0;collapsible=0;taskMarker=abstract;" vertex="1" parent="O_73Io-oXdO_OndHT06N-2">
          <mxGeometry x="120" y="40" width="110" height="60" as="geometry" />
        </mxCell>
        <mxCell id="O_73Io-oXdO_OndHT06N-48" value="Данные верны?" style="text;html=1;align=center;verticalAlign=middle;whiteSpace=wrap;rounded=0;" vertex="1" parent="O_73Io-oXdO_OndHT06N-2">
          <mxGeometry x="245" y="19" width="60" height="30" as="geometry" />
        </mxCell>
        <mxCell id="O_73Io-oXdO_OndHT06N-49" value="" style="edgeStyle=elbowEdgeStyle;fontSize=12;html=1;endArrow=blockThin;endFill=1;rounded=0;exitX=1;exitY=0.5;exitDx=0;exitDy=0;exitPerimeter=0;" edge="1" parent="O_73Io-oXdO_OndHT06N-2">
          <mxGeometry width="160" relative="1" as="geometry">
            <mxPoint x="230" y="70" as="sourcePoint" />
            <mxPoint x="260" y="70" as="targetPoint" />
          </mxGeometry>
        </mxCell>
        <mxCell id="O_73Io-oXdO_OndHT06N-51" value="" style="points=[[0.25,0.25,0],[0.5,0,0],[0.75,0.25,0],[1,0.5,0],[0.75,0.75,0],[0.5,1,0],[0.25,0.75,0],[0,0.5,0]];shape=mxgraph.bpmn.gateway2;html=1;verticalLabelPosition=bottom;labelBackgroundColor=#ffffff;verticalAlign=top;align=center;perimeter=rhombusPerimeter;outlineConnect=0;outline=none;symbol=none;gwType=exclusive;" vertex="1" parent="O_73Io-oXdO_OndHT06N-2">
          <mxGeometry x="257.5" y="52.5" width="35" height="35" as="geometry" />
        </mxCell>
        <mxCell id="O_73Io-oXdO_OndHT06N-53" value="Да" style="text;html=1;strokeColor=none;fillColor=none;align=center;verticalAlign=middle;whiteSpace=wrap;rounded=0;" vertex="1" parent="O_73Io-oXdO_OndHT06N-2">
          <mxGeometry x="222" y="76" width="80" height="30" as="geometry" />
        </mxCell>
        <mxCell id="O_73Io-oXdO_OndHT06N-56" value="" style="edgeStyle=elbowEdgeStyle;fontSize=12;html=1;endArrow=blockThin;endFill=1;rounded=0;exitX=1;exitY=0.5;exitDx=0;exitDy=0;exitPerimeter=0;entryX=1;entryY=0.25;entryDx=0;entryDy=0;entryPerimeter=0;" edge="1" parent="O_73Io-oXdO_OndHT06N-2" source="O_73Io-oXdO_OndHT06N-51" target="O_73Io-oXdO_OndHT06N-37">
          <mxGeometry width="160" relative="1" as="geometry">
            <mxPoint x="240" y="150" as="sourcePoint" />
            <mxPoint x="360" y="70" as="targetPoint" />
            <Array as="points">
              <mxPoint x="300" y="60" />
            </Array>
          </mxGeometry>
        </mxCell>
        <mxCell id="O_73Io-oXdO_OndHT06N-58" value="Нет" style="text;html=1;strokeColor=none;fillColor=none;align=center;verticalAlign=middle;whiteSpace=wrap;rounded=0;" vertex="1" parent="O_73Io-oXdO_OndHT06N-2">
          <mxGeometry x="250" y="76" width="80" height="30" as="geometry" />
        </mxCell>
        <mxCell id="O_73Io-oXdO_OndHT06N-59" value="Добавить участников" style="points=[[0.25,0,0],[0.5,0,0],[0.75,0,0],[1,0.25,0],[1,0.5,0],[1,0.75,0],[0.75,1,0],[0.5,1,0],[0.25,1,0],[0,0.75,0],[0,0.5,0],[0,0.25,0]];shape=mxgraph.bpmn.task2;whiteSpace=wrap;rectStyle=rounded;size=10;html=1;container=1;expand=0;collapsible=0;taskMarker=abstract;" vertex="1" parent="O_73Io-oXdO_OndHT06N-2">
          <mxGeometry x="395" y="40" width="100" height="60" as="geometry" />
        </mxCell>
        <mxCell id="O_73Io-oXdO_OndHT06N-65" value="Добавить участнику роль" style="points=[[0.25,0,0],[0.5,0,0],[0.75,0,0],[1,0.25,0],[1,0.5,0],[1,0.75,0],[0.75,1,0],[0.5,1,0],[0.25,1,0],[0,0.75,0],[0,0.5,0],[0,0.25,0]];shape=mxgraph.bpmn.task2;whiteSpace=wrap;rectStyle=rounded;size=10;html=1;container=1;expand=0;collapsible=0;taskMarker=abstract;" vertex="1" parent="O_73Io-oXdO_OndHT06N-2">
          <mxGeometry x="640" y="40" width="100" height="60" as="geometry" />
        </mxCell>
        <mxCell id="O_73Io-oXdO_OndHT06N-12" value="Сервер" style="swimlane;html=1;startSize=20;fontStyle=0;collapsible=0;horizontal=0;swimlaneLine=1;swimlaneFillColor=#ffffff;strokeWidth=2;whiteSpace=wrap;" vertex="1" parent="1">
          <mxGeometry x="30" y="290" width="960" height="160" as="geometry" />
        </mxCell>
        <mxCell id="O_73Io-oXdO_OndHT06N-38" value="" style="points=[[0.145,0.145,0],[0.5,0,0],[0.855,0.145,0],[1,0.5,0],[0.855,0.855,0],[0.5,1,0],[0.145,0.855,0],[0,0.5,0]];shape=mxgraph.bpmn.event;html=1;verticalLabelPosition=bottom;labelBackgroundColor=#ffffff;verticalAlign=top;align=center;perimeter=ellipsePerimeter;outlineConnect=0;aspect=fixed;outline=standard;symbol=message;" vertex="1" parent="O_73Io-oXdO_OndHT06N-12">
          <mxGeometry x="315" y="60" width="30" height="30" as="geometry" />
        </mxCell>
        <mxCell id="O_73Io-oXdO_OndHT06N-39" value="Предоставление данных" style="text;html=1;align=center;verticalAlign=middle;whiteSpace=wrap;rounded=0;" vertex="1" parent="O_73Io-oXdO_OndHT06N-12">
          <mxGeometry x="300" y="96" width="60" height="30" as="geometry" />
        </mxCell>
        <mxCell id="O_73Io-oXdO_OndHT06N-41" value="" style="dashed=1;dashPattern=8 4;endArrow=blockThin;endFill=1;startArrow=oval;startFill=0;endSize=6;startSize=4;html=1;rounded=0;exitX=0.5;exitY=1;exitDx=0;exitDy=0;exitPerimeter=0;" edge="1" parent="O_73Io-oXdO_OndHT06N-12" source="O_73Io-oXdO_OndHT06N-38">
          <mxGeometry width="160" relative="1" as="geometry">
            <mxPoint x="350" y="145" as="sourcePoint" />
            <mxPoint x="330" y="170" as="targetPoint" />
          </mxGeometry>
        </mxCell>
        <mxCell id="O_73Io-oXdO_OndHT06N-61" value="" style="points=[[0.145,0.145,0],[0.5,0,0],[0.855,0.145,0],[1,0.5,0],[0.855,0.855,0],[0.5,1,0],[0.145,0.855,0],[0,0.5,0]];shape=mxgraph.bpmn.event;html=1;verticalLabelPosition=bottom;labelBackgroundColor=#ffffff;verticalAlign=top;align=center;perimeter=ellipsePerimeter;outlineConnect=0;aspect=fixed;outline=standard;symbol=message;" vertex="1" parent="O_73Io-oXdO_OndHT06N-12">
          <mxGeometry x="560" y="62" width="30" height="30" as="geometry" />
        </mxCell>
        <mxCell id="O_73Io-oXdO_OndHT06N-62" value="Предоставление данных" style="text;html=1;align=center;verticalAlign=middle;whiteSpace=wrap;rounded=0;" vertex="1" parent="O_73Io-oXdO_OndHT06N-12">
          <mxGeometry x="545" y="98" width="60" height="30" as="geometry" />
        </mxCell>
        <mxCell id="O_73Io-oXdO_OndHT06N-63" value="" style="dashed=1;dashPattern=8 4;endArrow=blockThin;endFill=1;startArrow=oval;startFill=0;endSize=6;startSize=4;html=1;rounded=0;exitX=0.5;exitY=1;exitDx=0;exitDy=0;exitPerimeter=0;" edge="1" parent="O_73Io-oXdO_OndHT06N-12" source="O_73Io-oXdO_OndHT06N-61">
          <mxGeometry width="160" relative="1" as="geometry">
            <mxPoint x="595" y="147" as="sourcePoint" />
            <mxPoint x="575" y="172" as="targetPoint" />
          </mxGeometry>
        </mxCell>
        <mxCell id="O_73Io-oXdO_OndHT06N-68" value="Предоставление данных" style="text;html=1;align=center;verticalAlign=middle;whiteSpace=wrap;rounded=0;" vertex="1" parent="O_73Io-oXdO_OndHT06N-12">
          <mxGeometry x="780" y="96" width="60" height="30" as="geometry" />
        </mxCell>
        <mxCell id="O_73Io-oXdO_OndHT06N-67" value="" style="points=[[0.145,0.145,0],[0.5,0,0],[0.855,0.145,0],[1,0.5,0],[0.855,0.855,0],[0.5,1,0],[0.145,0.855,0],[0,0.5,0]];shape=mxgraph.bpmn.event;html=1;verticalLabelPosition=bottom;labelBackgroundColor=#ffffff;verticalAlign=top;align=center;perimeter=ellipsePerimeter;outlineConnect=0;aspect=fixed;outline=standard;symbol=message;" vertex="1" parent="O_73Io-oXdO_OndHT06N-12">
          <mxGeometry x="795" y="60" width="30" height="30" as="geometry" />
        </mxCell>
        <mxCell id="O_73Io-oXdO_OndHT06N-69" value="" style="dashed=1;dashPattern=8 4;endArrow=blockThin;endFill=1;startArrow=oval;startFill=0;endSize=6;startSize=4;html=1;rounded=0;exitX=0.5;exitY=1;exitDx=0;exitDy=0;exitPerimeter=0;" edge="1" parent="O_73Io-oXdO_OndHT06N-12" source="O_73Io-oXdO_OndHT06N-67">
          <mxGeometry width="160" relative="1" as="geometry">
            <mxPoint x="830" y="145" as="sourcePoint" />
            <mxPoint x="810" y="170" as="targetPoint" />
          </mxGeometry>
        </mxCell>
        <mxCell id="O_73Io-oXdO_OndHT06N-71" value="" style="points=[[0.145,0.145,0],[0.5,0,0],[0.855,0.145,0],[1,0.5,0],[0.855,0.855,0],[0.5,1,0],[0.145,0.855,0],[0,0.5,0]];shape=mxgraph.bpmn.event;html=1;verticalLabelPosition=bottom;labelBackgroundColor=#ffffff;verticalAlign=top;align=center;perimeter=ellipsePerimeter;outlineConnect=0;aspect=fixed;outline=end;symbol=terminate;" vertex="1" parent="O_73Io-oXdO_OndHT06N-12">
          <mxGeometry x="910" y="60" width="30" height="30" as="geometry" />
        </mxCell>
        <mxCell id="O_73Io-oXdO_OndHT06N-72" value="" style="edgeStyle=elbowEdgeStyle;fontSize=12;html=1;endArrow=blockThin;endFill=1;rounded=0;exitX=1;exitY=0.5;exitDx=0;exitDy=0;exitPerimeter=0;entryX=0;entryY=0.5;entryDx=0;entryDy=0;entryPerimeter=0;" edge="1" parent="O_73Io-oXdO_OndHT06N-12" source="O_73Io-oXdO_OndHT06N-67" target="O_73Io-oXdO_OndHT06N-71">
          <mxGeometry width="160" relative="1" as="geometry">
            <mxPoint x="700" y="100" as="sourcePoint" />
            <mxPoint x="860" y="100" as="targetPoint" />
          </mxGeometry>
        </mxCell>
        <mxCell id="O_73Io-oXdO_OndHT06N-29" value="" style="swimlane;html=1;startSize=20;fontStyle=0;collapsible=0;horizontal=0;swimlaneLine=0;fillColor=none;whiteSpace=wrap;" vertex="1" parent="1">
          <mxGeometry x="31" y="460" width="959" height="30" as="geometry" />
        </mxCell>
        <mxCell id="O_73Io-oXdO_OndHT06N-30" value="База данных" style="text;html=1;align=center;verticalAlign=middle;resizable=0;points=[];autosize=1;strokeColor=none;fillColor=none;" vertex="1" parent="O_73Io-oXdO_OndHT06N-29">
          <mxGeometry x="345" width="90" height="30" as="geometry" />
        </mxCell>
        <mxCell id="O_73Io-oXdO_OndHT06N-52" value="" style="edgeStyle=elbowEdgeStyle;fontSize=12;html=1;endArrow=blockThin;endFill=1;rounded=0;exitX=0.5;exitY=1;exitDx=0;exitDy=0;exitPerimeter=0;entryX=0;entryY=0.5;entryDx=0;entryDy=0;entryPerimeter=0;" edge="1" parent="1" source="O_73Io-oXdO_OndHT06N-51" target="O_73Io-oXdO_OndHT06N-38">
          <mxGeometry width="160" relative="1" as="geometry">
            <mxPoint x="270" y="300" as="sourcePoint" />
            <mxPoint x="430" y="300" as="targetPoint" />
            <Array as="points">
              <mxPoint x="305" y="300" />
            </Array>
          </mxGeometry>
        </mxCell>
        <mxCell id="O_73Io-oXdO_OndHT06N-60" value="" style="edgeStyle=elbowEdgeStyle;fontSize=12;html=1;endArrow=blockThin;endFill=1;rounded=0;exitX=1;exitY=0.5;exitDx=0;exitDy=0;exitPerimeter=0;" edge="1" parent="1" source="O_73Io-oXdO_OndHT06N-38" target="O_73Io-oXdO_OndHT06N-59">
          <mxGeometry width="160" relative="1" as="geometry">
            <mxPoint x="340" y="260" as="sourcePoint" />
            <mxPoint x="500" y="260" as="targetPoint" />
          </mxGeometry>
        </mxCell>
        <mxCell id="O_73Io-oXdO_OndHT06N-64" value="" style="edgeStyle=elbowEdgeStyle;fontSize=12;html=1;endArrow=blockThin;endFill=1;rounded=0;exitX=1;exitY=0.5;exitDx=0;exitDy=0;exitPerimeter=0;entryX=0;entryY=0.5;entryDx=0;entryDy=0;entryPerimeter=0;" edge="1" parent="1" target="O_73Io-oXdO_OndHT06N-61" source="O_73Io-oXdO_OndHT06N-59">
          <mxGeometry width="160" relative="1" as="geometry">
            <mxPoint x="550" y="240" as="sourcePoint" />
            <mxPoint x="675" y="302" as="targetPoint" />
            <Array as="points">
              <mxPoint x="550" y="302" />
            </Array>
          </mxGeometry>
        </mxCell>
        <mxCell id="O_73Io-oXdO_OndHT06N-66" value="" style="edgeStyle=elbowEdgeStyle;fontSize=12;html=1;endArrow=blockThin;endFill=1;rounded=0;exitX=1;exitY=0.5;exitDx=0;exitDy=0;exitPerimeter=0;" edge="1" parent="1" source="O_73Io-oXdO_OndHT06N-61" target="O_73Io-oXdO_OndHT06N-65">
          <mxGeometry width="160" relative="1" as="geometry">
            <mxPoint x="650" y="300" as="sourcePoint" />
            <mxPoint x="810" y="300" as="targetPoint" />
          </mxGeometry>
        </mxCell>
        <mxCell id="O_73Io-oXdO_OndHT06N-70" value="" style="edgeStyle=elbowEdgeStyle;fontSize=12;html=1;endArrow=blockThin;endFill=1;rounded=0;exitX=1;exitY=0.5;exitDx=0;exitDy=0;exitPerimeter=0;entryX=0;entryY=0.5;entryDx=0;entryDy=0;entryPerimeter=0;" edge="1" parent="1" source="O_73Io-oXdO_OndHT06N-65" target="O_73Io-oXdO_OndHT06N-67">
          <mxGeometry width="160" relative="1" as="geometry">
            <mxPoint x="690" y="330" as="sourcePoint" />
            <mxPoint x="850" y="330" as="targetPoint" />
          </mxGeometry>
        </mxCell>
      </root>
    </mxGraphModel>
  </diagram>
</mxfile>
